<?xml version="1.0" encoding="UTF-8" standalone="no"?>
<!-- Created with Inkscape (http://www.inkscape.org/) -->

<svg
   width="50"
   height="50"
   viewBox="0 0 50 50.000001"
   version="1.1"
   id="svg1"
   inkscape:version="1.3.2 (091e20e, 2023-11-25, custom)"
   sodipodi:docname="Favicon.svg"
   xmlns:inkscape="http://www.inkscape.org/namespaces/inkscape"
   xmlns:sodipodi="http://sodipodi.sourceforge.net/DTD/sodipodi-0.dtd"
   xmlns="http://www.w3.org/2000/svg"
   xmlns:svg="http://www.w3.org/2000/svg">
  <sodipodi:namedview
     id="namedview1"
     pagecolor="#ffffff"
     bordercolor="#666666"
     borderopacity="1.0"
     inkscape:showpageshadow="2"
     inkscape:pageopacity="0.0"
     inkscape:pagecheckerboard="0"
     inkscape:deskcolor="#d1d1d1"
     inkscape:document-units="px"
     inkscape:zoom="2.9255612"
     inkscape:cx="115.7043"
     inkscape:cy="109.89345"
     inkscape:window-width="1920"
     inkscape:window-height="1017"
     inkscape:window-x="1358"
     inkscape:window-y="-8"
     inkscape:window-maximized="1"
     inkscape:current-layer="layer1"
     showgrid="false" />
  <defs
     id="defs1" />
  <g
     inkscape:label="Layer 1"
     inkscape:groupmode="layer"
     id="layer1"
     transform="translate(-0.70363856,-3.9052083)">
    <path
       id="path17"
       style="fill:#036894;fill-opacity:1;fill-rule:nonzero;stroke:none;stroke-width:1.0802;stroke-linecap:round;stroke-linejoin:round;stroke-miterlimit:4;stroke-dasharray:none;stroke-opacity:1;paint-order:normal"
       d="M 25.703209,4.2572083 C 12.090428,4.2575388 1.0553066,15.293024 1.0554553,28.905805 c 0.016839,6.729757 2.7825061,13.12587 7.5978658,17.737816 0.8715826,0.834764 1.6435629,0.461401 1.6435629,-0.745839 V 28.810179 a 5.2774428,5.2774428 0 0 1 1.545623,-3.731612 l 12.278364,-12.27905 a 2.185842,2.185842 0 0 1 3.09129,-4.4e-5 l 12.279152,12.279138 a 5.2772302,5.2772302 0 0 1 1.545667,3.731568 v 17.142246 c 0,1.20724 0.774278,1.583551 1.649031,0.752117 4.85532,-4.614874 7.647741,-11.03745 7.665811,-17.798737 C 50.35197,15.292693 39.31632,4.2570596 25.703209,4.2572083 Z M 15.597692,28.217591 v 6.12481 h 6.124793 v -6.12481 z m 7.164806,0 v 6.12481 h 6.124794 v -6.12481 z m -7.164806,7.164806 v 6.124794 h 6.124793 v -6.124794 z m 7.164806,0 v 6.124794 h 6.124794 v -6.124794 z"
       sodipodi:nodetypes="ccccccccccccccccccccccccccccc" />
  </g>
</svg>
