<?xml version="1.0" encoding="UTF-8" standalone="no"?>
<!-- Created with Inkscape (http://www.inkscape.org/) -->

<svg
   width="49.296368"
   height="49.296001"
   viewBox="0 0 49.296368 49.296002"
   version="1.1"
   id="svg1"
   xmlns="http://www.w3.org/2000/svg"
   xmlns:svg="http://www.w3.org/2000/svg">
  <defs
     id="defs1" />
  <g
     id="layer1"
     transform="translate(-1.0554553,-4.2572083)">
    <path
       id="path17"
       style="fill:#036894;fill-opacity:1;fill-rule:nonzero;stroke:none;stroke-width:1.0802;stroke-linecap:round;stroke-linejoin:round;stroke-miterlimit:4;stroke-dasharray:none;stroke-opacity:1;paint-order:normal"
       d="M 25.703209,4.2572083 C 12.090428,4.2575388 1.0553066,15.293024 1.0554553,28.905805 c 0.016839,6.729757 2.7825061,13.12587 7.5978658,17.737816 0.8715826,0.834764 1.6435629,0.461401 1.6435629,-0.745839 V 28.810179 a 5.2774428,5.2774428 0 0 1 1.545623,-3.731612 l 12.278364,-12.27905 a 2.185842,2.185842 0 0 1 3.09129,-4.4e-5 l 12.279152,12.279138 a 5.2772302,5.2772302 0 0 1 1.545667,3.731568 v 17.142246 c 0,1.20724 0.774278,1.583551 1.649031,0.752117 4.85532,-4.614874 7.647741,-11.03745 7.665811,-17.798737 C 50.35197,15.292693 39.31632,4.2570596 25.703209,4.2572083 Z M 15.597692,28.217591 v 6.12481 h 6.124793 v -6.12481 z m 7.164806,0 v 6.12481 h 6.124794 v -6.12481 z m -7.164806,7.164806 v 6.124794 h 6.124793 v -6.124794 z m 7.164806,0 v 6.124794 h 6.124794 v -6.124794 z" />
  </g>
</svg>
