<?xml version="1.0" encoding="UTF-8" standalone="no"?>
<!-- Created with Inkscape (http://www.inkscape.org/) -->

<svg
   width="50mm"
   height="50mm"
   viewBox="0 0 50 50"
   version="1.1"
   id="svg1"
   inkscape:version="1.3.2 (091e20e, 2023-11-25, custom)"
   sodipodi:docname="drawing.svg"
   xmlns:inkscape="http://www.inkscape.org/namespaces/inkscape"
   xmlns:sodipodi="http://sodipodi.sourceforge.net/DTD/sodipodi-0.dtd"
   xmlns="http://www.w3.org/2000/svg"
   xmlns:svg="http://www.w3.org/2000/svg">
  <sodipodi:namedview
     id="namedview1"
     pagecolor="#ffffff"
     bordercolor="#666666"
     borderopacity="1.0"
     inkscape:showpageshadow="2"
     inkscape:pageopacity="0.0"
     inkscape:pagecheckerboard="0"
     inkscape:deskcolor="#d1d1d1"
     inkscape:document-units="mm"
     inkscape:zoom="2.9255612"
     inkscape:cx="115.7043"
     inkscape:cy="109.89345"
     inkscape:window-width="1920"
     inkscape:window-height="1017"
     inkscape:window-x="1358"
     inkscape:window-y="-8"
     inkscape:window-maximized="1"
     inkscape:current-layer="layer1" />
  <defs
     id="defs1">
    <inkscape:path-effect
       effect="fillet_chamfer"
       id="path-effect18"
       is_visible="true"
       lpeversion="1"
       nodesatellites_param="F,0,0,1,0,0,0,1 @ F,0,0,1,0,0,0,1 @ F,0,1,1,0,1.3229167,0,1 @ F,0,1,1,0,1.3229167,0,1 @ F,0,1,1,0,1.3229167,0,1 @ F,0,1,1,0,1.3229167,0,1 @ F,0,1,1,0,1.3229167,0,1 @ F,0,0,1,0,0,0,1 | F,0,0,1,0,0,0,1 @ F,0,0,1,0,0,0,1 @ F,0,0,1,0,0,0,1 @ F,0,0,1,0,0,0,1 | F,0,0,1,0,0,0,1 @ F,0,0,1,0,0,0,1 @ F,0,0,1,0,0,0,1 @ F,0,0,1,0,0,0,1 | F,0,0,1,0,0,0,1 @ F,0,0,1,0,0,0,1 @ F,0,0,1,0,0,0,1 @ F,0,0,1,0,0,0,1 | F,0,0,1,0,0,0,1 @ F,0,0,1,0,0,0,1 @ F,0,0,1,0,0,0,1 @ F,0,0,1,0,0,0,1"
       radius="6"
       unit="px"
       method="auto"
       mode="F"
       chamfer_steps="1"
       flexible="false"
       use_knot_distance="true"
       apply_no_radius="true"
       apply_with_radius="true"
       only_selected="true"
       hide_knots="false" />
  </defs>
  <g
     inkscape:label="Layer 1"
     inkscape:groupmode="layer"
     id="layer1">
    <path
       id="path17"
       style="fill:#036894;fill-opacity:1;fill-rule:nonzero;stroke:none;stroke-width:0.653743;stroke-linecap:round;stroke-linejoin:round;stroke-miterlimit:4;stroke-dasharray:none;stroke-opacity:1;paint-order:normal"
       d="m 389.4789,274.31188 c -8.23851,2e-4 -14.91701,6.67892 -14.91692,14.91743 0.0102,4.07288 1.68398,7.94383 4.59826,10.735 0.52748,0.5052 0.99469,0.27924 0.99469,-0.45139 v -10.34148 a 3.1939297,3.1939297 112.4992 0 1 0.93542,-2.25839 l 7.43091,-7.43133 a 1.3228804,1.3228804 179.99918 0 1 1.87086,-3e-5 l 7.4314,7.43139 a 3.193801,3.193801 67.499985 0 1 0.93544,2.25836 v 10.37455 c 0,0.73063 0.4686,0.95838 0.998,0.45519 2.93846,-2.79294 4.62844,-6.67991 4.63938,-10.77187 9e-5,-8.23871 -6.67873,-14.91752 -14.91744,-14.91743 z m -6.1159,14.50092 v 3.70676 h 3.70675 v -3.70676 z m 4.33617,0 v 3.70676 h 3.70675 v -3.70676 z m -4.33617,4.33617 v 3.70675 h 3.70675 v -3.70675 z m 4.33617,0 v 3.70675 h 3.70675 v -3.70675 z"
       inkscape:path-effect="#path-effect18"
       inkscape:original-d="m 389.4789,274.31188 c -8.23851,2e-4 -14.91701,6.67892 -14.91692,14.91743 0.0113,4.51599 2.06788,8.78373 5.59295,11.60653 v -12.98732 l 9.30175,-9.30227 9.30228,9.30227 v 13.02039 c 3.55075,-2.82123 5.62526,-7.10452 5.63738,-11.6396 9e-5,-8.23871 -6.67873,-14.91752 -14.91744,-14.91743 z m -6.1159,14.50092 v 3.70676 h 3.70675 v -3.70676 z m 4.33617,0 v 3.70676 h 3.70675 v -3.70676 z m -4.33617,4.33617 v 3.70675 h 3.70675 v -3.70675 z m 4.33617,0 v 3.70675 h 3.70675 v -3.70675 z"
       transform="matrix(1.6523353,0,0,1.6523353,-618.55016,-449.70189)"
       sodipodi:nodetypes="ccccccccccccccccccccccccccccc" />
  </g>
</svg>
